<svg xmlns="http://www.w3.org/2000/svg" viewBox="0 0 705.57 885.51"><g id="Layer_2" data-name="Layer 2"><g id="Layer_1-2" data-name="Layer 1"><rect x="1.7" width="700.68" height="13.77" fill="#069146"/><rect x="1.7" y="59.49" width="700.68" height="16.32" fill="#069146"/><rect x="1.7" y="129.7" width="700.68" height="21.94" fill="#069146"/><rect x="1.7" y="193.53" width="700.68" height="31.21" fill="#069146"/><rect x="1.7" y="266.3" width="700.68" height="48.32" fill="#069146"/><rect x="1.7" y="358.98" width="700.68" height="65.94" fill="#069146"/><rect x="1.7" y="451.4" width="700.68" height="102.19" fill="#069146"/><rect x="1.7" y="567.83" width="700.68" height="123.64" fill="#069146"/><rect y="703.66" width="705.57" height="181.85" fill="#069146"/><path d="M624.77,160.85c-39-23.15-77.89-18.7-89.88-16.85a108.81,108.81,0,0,0-14.8,3.74c-21.94,7.22-35.93,19.64-43,25.88-50.37,44.29-25.59,16.79-60.62,51.57-32.11,31.86-62.16,61.7-102.9,110.55-20.77,24.92-47.16,58.18-76,99.09l-69.79,1.76a17.42,17.42,0,0,1,1.53-7.15c3.74-8.19,13.45-11.21,27.32-15.32a159.21,159.21,0,0,1,18.89-4.34,114.94,114.94,0,0,0-50.26,2c-8.16,2.22-18.86,5.25-29.65,13.88-7.66,6.13-11.74,12.19-18.39,22.22A229.12,229.12,0,0,0,97,485.61c-.89,4.95-2.17,16.23,4.51,24,5.34,6.21,13.15,7.15,25.36,8.3,14,1.32,30.74,2.65,49.88,3.62l-55,84.59a20.85,20.85,0,0,0-9.13-4.58c-21.33-4.35-44.24,31-51.64,42.37C41,674.82,22.84,723.29,38.37,736.15a14.81,14.81,0,0,0,7.33,3.08,32.43,32.43,0,0,0,11.92.51c9.24-1.36,18.68-7.11,40-35.74,7.69-10.33,8.65-12.53,17-24.34,13.54-19.13,24.19-32,28.85-37.79,12.34-15.37,35.47-47,82.47-117.45H387.58c-8.44,28.4-16.13,58.62-22.65,90.6q-2.65,13.07-4.93,25.83c-1.2,7.69-3.58,29.76,9.79,49.53a61.41,61.41,0,0,0,11.4,12.6c6.25,3.2,11.25,3.61,15.05,3.1,20.09-2.72,36.64-35.33,40.27-81.4a98.32,98.32,0,0,1,1.36-12.77A95.69,95.69,0,0,1,442,596.1c2.48-7.1,7.14-25.46,16.61-73.89l57.11-5.7c21-37.34,35.58-65.76,38.55-74.68,1.51-4.56,1.17-7.64.34-9.92a13.93,13.93,0,0,0-8.51-8.08l-59.24-1.54q31.92-105.18,63.83-210.38A73.58,73.58,0,0,1,573,199.15c5-1.77,18.77-6,60.17.44,9.65,1.51,22.63,3.88,37.87,7.73A133.51,133.51,0,0,0,624.77,160.85ZM453.45,314.29q-18,55.33-34.21,109.07l-125,3.21A1041.54,1041.54,0,0,1,488.43,210.38Q470.72,261.25,453.45,314.29Z" fill="#f9f9fa" stroke="#089147" stroke-miterlimit="10" stroke-width="7"/></g></g></svg>